<?xml version="1.0" standalone="no"?>
<!DOCTYPE svg PUBLIC "-//W3C//DTD SVG 20010904//EN"
 "http://www.w3.org/TR/2001/REC-SVG-20010904/DTD/svg10.dtd">
<svg version="1.0" xmlns="http://www.w3.org/2000/svg"
 width="512.000000pt" height="512.000000pt" viewBox="0 0 512.000000 512.000000"
 preserveAspectRatio="xMidYMid meet">
<metadata>
Created by potrace 1.14, written by Peter Selinger 2001-2017
</metadata>
<g transform="translate(0.000000,512.000000) scale(0.100000,-0.100000)"
fill="#000000" stroke="none">
<path d="M2475 5045 c-33 -8 -148 -18 -255 -24 -183 -9 -201 -12 -275 -41
-215 -83 -341 -156 -485 -280 -106 -91 -159 -148 -166 -177 -4 -16 -43 -66
-89 -113 -60 -62 -94 -107 -123 -165 -22 -44 -59 -98 -81 -120 -24 -22 -45
-55 -50 -75 -9 -34 -15 -151 -15 -275 0 -66 37 -196 66 -234 10 -13 18 -31 18
-40 0 -33 32 -137 59 -196 39 -81 51 -129 51 -199 0 -52 2 -57 18 -50 9 5 36
8 59 8 33 0 49 -6 73 -29 16 -16 30 -36 30 -46 0 -9 7 -19 15 -23 8 -3 15 -11
15 -17 0 -8 -7 -6 -18 4 -10 10 -25 17 -33 17 -8 0 -23 7 -33 15 -23 18 -67
20 -83 4 -6 -6 -22 -17 -35 -23 -33 -17 -38 -108 -8 -166 19 -38 32 -86 49
-186 9 -53 42 -107 105 -171 58 -61 86 -68 86 -23 0 24 -4 30 -21 30 -22 0
-108 78 -128 117 -17 33 -13 109 10 192 27 97 53 133 94 129 26 -3 31 -8 35
-38 4 -25 11 -36 25 -38 45 -7 49 -12 27 -28 -12 -8 -30 -13 -40 -10 -14 5
-23 -5 -43 -49 -13 -30 -30 -55 -36 -55 -7 0 -13 -11 -13 -24 0 -14 -4 -28
-10 -31 -20 -12 -9 -48 23 -80 41 -41 79 -52 113 -34 l25 13 -26 23 c-37 35
-33 72 10 100 l35 22 -3 -22 c-2 -18 3 -22 28 -21 34 1 45 -10 45 -44 0 -17
-10 -27 -41 -41 l-40 -18 31 -27 c20 -16 43 -26 65 -26 35 0 46 -16 60 -87 15
-73 49 -16 46 77 -3 107 -3 121 2 225 3 78 0 114 -14 164 -24 80 -24 79 6 93
28 13 42 45 26 61 -13 13 -15 47 -2 47 17 0 30 -26 24 -48 -4 -16 -1 -22 11
-22 9 0 16 6 16 14 0 21 20 30 33 17 17 -17 39 -13 66 13 30 29 81 45 81 26 0
-7 7 -10 16 -6 9 4 23 1 32 -6 13 -11 14 -10 8 10 -4 12 -3 22 2 22 10 0 42
-60 42 -79 0 -7 14 -47 30 -91 51 -131 86 -151 309 -176 172 -19 262 -18 381
6 131 26 144 25 95 -4 -58 -35 -62 -78 -16 -170 l34 -68 -23 -18 c-17 -13 -22
-24 -18 -44 4 -18 1 -29 -8 -33 -8 -3 -14 -11 -14 -19 0 -8 -5 -14 -10 -14 -6
0 -10 8 -8 17 2 10 -5 19 -16 21 -15 3 -18 -1 -14 -22 6 -30 1 -32 -30 -11
-20 15 -23 14 -39 -5 -10 -11 -25 -20 -34 -20 -11 0 -20 -11 -24 -32 -4 -18
-21 -45 -38 -61 -25 -23 -29 -32 -20 -45 5 -9 19 -19 29 -21 26 -5 35 -21 23
-42 -6 -12 -5 -31 5 -56 8 -21 17 -50 20 -65 4 -16 13 -28 21 -28 14 0 20 22
17 63 -1 9 3 17 10 17 6 0 20 8 30 17 17 15 20 15 46 -4 45 -34 191 -91 272
-107 50 -10 78 -21 85 -33 19 -33 80 -84 107 -90 15 -3 33 -12 39 -19 6 -8 18
-14 25 -14 9 0 14 -12 14 -37 0 -29 3 -34 12 -25 7 7 17 27 22 44 11 34 55 54
57 26 1 -7 4 -2 8 12 6 19 13 24 33 22 16 -1 28 4 32 13 3 8 12 15 19 15 24 0
49 37 42 59 -4 12 -2 21 4 21 20 0 61 54 55 72 -8 25 5 58 21 58 8 0 17 11 21
25 3 14 12 25 20 25 9 0 14 -19 16 -67 3 -74 21 -93 26 -28 5 95 13 124 33
130 23 8 26 69 6 127 -21 59 -93 138 -126 138 -39 0 -51 17 -51 73 0 45 2 48
21 42 34 -11 39 13 13 65 -13 26 -24 54 -24 62 0 7 -12 21 -26 29 -25 15 -18
16 127 16 124 0 174 4 254 23 120 27 124 29 158 77 21 30 34 75 58 197 39 198
35 222 -33 245 -25 9 -55 24 -65 34 -11 9 -27 17 -36 17 -23 0 -21 17 2 23 14
3 22 20 30 59 10 48 9 67 -14 159 -14 57 -25 128 -25 157 0 58 -33 224 -58
287 -8 22 -32 60 -52 85 -47 57 -184 285 -223 370 -34 77 -59 105 -154 176
-39 29 -74 61 -77 72 -10 31 -83 83 -168 119 -44 18 -92 42 -107 52 -43 30
-207 110 -295 143 -68 26 -98 31 -186 34 -66 2 -127 -2 -165 -11z m-300 -745
c3 -5 1 -10 -4 -10 -6 0 -11 5 -11 10 0 6 2 10 4 10 3 0 8 -4 11 -10z m400
-10 c9 -15 125 -66 167 -74 22 -4 39 -2 43 4 10 15 126 12 159 -5 15 -8 39
-15 52 -15 13 0 28 -9 34 -19 13 -26 72 -44 118 -38 20 3 61 9 90 13 42 5 55
11 61 28 l8 20 14 -22 c8 -12 21 -22 30 -22 36 0 87 -31 114 -70 24 -35 32
-40 56 -35 24 5 31 0 65 -51 22 -32 48 -62 58 -68 11 -6 28 -18 37 -26 32 -28
139 -377 139 -452 l0 -33 -23 26 c-33 40 -69 60 -87 49 -8 -5 -25 -7 -37 -3
-13 3 -34 -2 -48 -11 -13 -9 -44 -16 -67 -16 -186 0 -384 -91 -421 -192 -5
-14 -18 -18 -50 -18 -52 0 -155 18 -180 32 -17 9 -17 11 -3 27 15 16 15 19 1
31 -8 7 -15 21 -15 31 0 16 -8 19 -52 19 -29 0 -58 6 -67 14 -19 16 -187 36
-299 36 -42 0 -92 4 -110 9 -24 7 -42 6 -68 -5 -20 -8 -48 -13 -63 -10 -14 3
-32 2 -40 -3 -8 -5 -25 -4 -43 3 -26 9 -32 8 -44 -8 -20 -28 -18 -41 9 -53 21
-10 21 -11 -15 -28 -20 -10 -34 -23 -32 -30 5 -12 -99 -40 -191 -51 -41 -6
-48 -4 -37 7 17 19 15 49 -8 94 -11 22 -19 57 -19 84 0 25 0 63 -1 83 -1 24 6
50 20 73 21 34 21 37 5 55 -9 10 -16 29 -14 42 2 21 -2 61 -17 156 -4 29 -2
32 20 32 14 0 28 5 31 10 3 6 24 10 46 10 35 0 40 4 56 38 16 33 23 37 57 39
22 1 45 -2 52 -8 19 -15 34 -2 34 30 0 15 5 32 12 39 16 16 19 44 6 59 -6 7
-8 13 -4 13 3 0 9 0 14 0 4 0 7 -6 7 -12 0 -7 8 -14 18 -16 10 -2 17 3 17 12
0 21 34 21 71 -1 27 -16 29 -16 49 2 25 23 25 30 -1 66 -11 16 -19 36 -16 43
6 16 55 27 63 15 3 -5 21 -9 40 -9 27 0 37 5 44 23 5 12 9 18 9 13 1 -5 9 -2
19 7 17 16 21 15 58 -23 61 -62 96 -51 54 18 -15 25 -17 32 -5 32 7 0 17 -5
20 -10z m1265 -932 c0 -13 -8 -18 -25 -18 -30 0 -30 3 -8 36 12 19 18 22 24
12 5 -7 9 -21 9 -30z m-240 -12 c0 -2 -11 -6 -25 -8 -13 -3 -22 -1 -19 3 5 9
44 13 44 5z m-1495 -76 c3 -6 -2 -13 -12 -16 -10 -3 -26 -10 -35 -15 -27 -14
-40 -11 -36 8 3 15 21 24 70 32 4 0 10 -4 13 -9z m431 -5 c4 -8 17 -15 30 -15
13 0 28 -9 34 -20 10 -18 8 -20 -18 -20 -33 0 -55 -20 -47 -41 7 -21 -10 -41
-31 -37 -12 2 -20 13 -22 31 -4 30 -22 38 -22 8 0 -10 -7 -24 -15 -31 -12 -10
-15 -7 -21 14 -3 13 -3 29 0 35 4 5 1 13 -5 16 -20 13 -34 -16 -34 -68 0 -41
-4 -52 -17 -55 -11 -2 -22 6 -29 22 -10 22 -9 29 6 46 18 20 17 20 -7 20 -27
0 -41 -20 -32 -44 8 -22 -24 -46 -62 -46 -31 0 -34 2 -34 31 0 26 -3 29 -14
20 -20 -16 -62 24 -71 67 -7 33 9 44 32 21 8 -8 20 -6 42 6 18 9 54 19 82 22
27 3 49 10 49 16 0 5 12 7 28 4 15 -2 36 -1 47 3 36 15 125 12 131 -5z m1309
-15 c-6 -9 -9 -9 -16 1 -10 17 0 34 13 21 6 -6 7 -16 3 -22z m-133 8 c12 -20
9 -31 -7 -24 -9 3 -24 0 -35 -6 -14 -9 -28 -9 -60 1 -43 13 -65 10 -117 -17
-30 -15 -33 -15 -53 3 -14 13 -17 22 -10 29 23 23 268 35 282 14z m233 -3 c0
-5 -10 -11 -22 -13 -16 -2 -23 2 -23 13 0 11 7 15 23 13 12 -2 22 -7 22 -13z
m-912 -19 c24 -19 21 -36 -7 -36 -26 0 -51 24 -41 40 8 14 26 12 48 -4z m373
-13 c-4 -9 -10 -36 -13 -60 -4 -33 -10 -43 -24 -43 -17 0 -18 5 -13 39 4 25 2
41 -5 46 -18 11 7 35 36 35 20 0 24 -4 19 -17z m-306 -3 c0 -5 -4 -10 -10 -10
-5 0 -10 5 -10 10 0 6 5 10 10 10 6 0 10 -4 10 -10z m-180 -30 c0 -5 -2 -10
-4 -10 -3 0 -8 5 -11 10 -3 6 -1 10 4 10 6 0 11 -4 11 -10z m559 -24 c8 -10 7
-21 -5 -45 -17 -34 -34 -33 -34 4 0 49 17 67 39 41z m-519 -27 c0 -6 -4 -7
-10 -4 -5 3 -10 11 -10 16 0 6 5 7 10 4 6 -3 10 -11 10 -16z m340 12 c0 -6 -4
-13 -10 -16 -5 -3 -10 1 -10 9 0 9 5 16 10 16 6 0 10 -4 10 -9z m277 -43 c-3
-8 -6 -5 -6 6 -1 11 2 17 5 13 3 -3 4 -12 1 -19z m257 -15 c-15 -24 -34 -28
-34 -6 0 26 21 46 34 33 7 -7 7 -16 0 -27z m236 18 c29 -56 -3 -222 -53 -269
-53 -49 -380 -79 -526 -48 -84 18 -114 40 -141 101 -30 70 -33 85 -16 85 9 0
16 -7 16 -15 0 -9 12 -20 26 -25 21 -8 29 -7 39 6 10 14 23 16 77 11 81 -7
193 14 220 43 10 11 23 20 28 20 4 0 15 2 22 5 9 4 19 -4 26 -20 7 -14 20 -25
31 -25 11 0 29 -12 40 -27 12 -16 21 -22 21 -14 0 8 7 22 15 31 10 11 16 39
17 74 1 31 5 59 10 62 9 6 88 21 120 23 10 0 22 -8 28 -18z m-1960 -5 c0 -8 8
-28 18 -46 16 -29 16 -31 0 -41 -27 -15 -21 -37 15 -53 17 -8 47 -28 65 -46
29 -28 34 -30 48 -16 18 19 45 21 61 5 8 -8 17 -8 31 0 15 8 29 7 54 -3 28
-12 49 -11 153 5 125 19 197 46 216 80 6 12 17 18 25 15 9 -3 28 1 43 9 16 8
31 12 33 10 6 -7 -11 -133 -23 -173 -13 -39 -40 -54 -139 -76 -151 -32 -386
-30 -525 5 -84 21 -122 83 -133 217 -4 55 -3 62 12 56 9 -3 16 -1 16 5 0 6 -7
11 -15 11 -18 0 -20 21 -3 38 17 17 48 15 48 -2z m725 4 c3 -5 1 -10 -4 -10
-6 0 -11 5 -11 10 0 6 2 10 4 10 3 0 8 -4 11 -10z m318 -40 c30 -28 69 -76 86
-108 18 -31 54 -88 81 -127 27 -38 49 -76 50 -83 0 -7 11 -30 25 -50 28 -41
24 -50 -29 -59 -23 -4 -49 -18 -71 -40 -29 -29 -41 -34 -68 -30 -17 2 -40 1
-49 -4 -12 -7 -26 -4 -43 7 -21 14 -33 15 -68 6 -23 -6 -65 -13 -93 -17 -49
-5 -52 -4 -58 20 -4 17 0 31 14 45 11 11 20 30 21 43 1 30 -2 91 -6 95 -1 1
-15 -2 -30 -8 -40 -15 -41 -7 -6 37 28 35 76 149 103 246 11 37 49 77 74 77 7
0 38 -23 67 -50z m-528 18 c14 -6 25 -14 25 -18 0 -11 -22 -27 -47 -34 -19 -6
-23 -3 -23 13 0 20 9 51 16 51 2 0 15 -5 29 -12z m713 -30 c2 -16 -1 -28 -7
-28 -6 0 -11 -8 -12 -17 0 -14 -2 -15 -6 -3 -4 8 -12 21 -20 28 -25 26 -13 55
22 50 13 -2 21 -12 23 -30z m357 12 c8 -14 -73 -48 -121 -51 -22 -1 -67 -2
-101 -1 -49 2 -63 5 -63 17 0 24 26 29 87 18 52 -9 109 -1 129 20 11 11 62 8
69 -3z m-1066 -84 c27 -17 -39 -40 -119 -41 -76 -2 -150 21 -150 46 0 14 247
8 269 -5z m261 -546 c0 -11 -4 -20 -9 -20 -11 0 -22 26 -14 34 12 12 23 5 23
-14z m285 10 c3 -5 -3 -10 -15 -10 -12 0 -18 5 -15 10 3 6 10 10 15 10 5 0 12
-4 15 -10z m59 -26 c3 -9 6 -24 6 -34 0 -9 7 -24 16 -31 14 -11 18 -11 29 5
12 16 15 16 44 2 16 -9 41 -16 55 -16 50 0 34 -17 -22 -23 -31 -3 -73 -13 -91
-23 -28 -14 -63 -18 -165 -19 -125 -1 -292 -17 -347 -34 -34 -10 -71 4 -67 26
2 12 14 18 35 19 18 1 54 15 80 32 27 16 59 33 73 37 32 9 51 25 45 35 -8 13
13 22 35 15 11 -4 20 -13 20 -21 0 -16 55 -20 65 -4 12 19 59 10 86 -16 28
-27 53 -26 42 2 -8 21 17 64 38 64 9 0 20 -7 23 -16z m61 -217 c24 -16 92 -21
100 -7 12 19 25 10 25 -18 0 -30 -16 -52 -38 -52 -8 0 -25 -9 -39 -20 -30 -23
-95 -27 -115 -6 -12 11 -18 11 -37 -5 -28 -23 -84 -25 -101 -4 -9 11 -23 14
-45 9 -18 -3 -43 -1 -55 6 -15 8 -30 8 -50 2 -38 -14 -70 8 -70 49 0 23 4 29
22 29 12 0 34 -12 49 -26 l26 -25 7 24 c6 25 48 45 54 27 2 -5 12 -20 22 -32
l19 -23 1 31 c0 35 13 44 61 44 19 0 38 -9 54 -26 23 -25 23 -25 30 -4 4 12
16 25 28 30 30 12 30 12 52 -3z m-465 -67 c0 -5 -4 -10 -10 -10 -5 0 -10 5
-10 10 0 6 5 10 10 10 6 0 10 -4 10 -10z m448 -119 c3 -8 -1 -12 -9 -9 -7 2
-15 10 -17 17 -3 8 1 12 9 9 7 -2 15 -10 17 -17z m57 -1 c-3 -5 -10 -10 -16
-10 -5 0 -9 5 -9 10 0 6 7 10 16 10 8 0 12 -4 9 -10z"/>
<path d="M2173 3175 c-17 -13 -16 -14 9 -15 30 0 46 15 24 23 -8 3 -22 -1 -33
-8z"/>
<path d="M2986 2701 c-4 -7 -5 -15 -2 -18 9 -9 19 4 14 18 -4 11 -6 11 -12 0z"/>
<path d="M1762 2941 c4 -13 18 -16 19 -4 0 4 -5 9 -11 12 -7 2 -11 -2 -8 -8z"/>
<path d="M2690 2612 c0 -5 -11 -14 -25 -20 -26 -12 -53 -64 -62 -121 -6 -31
-5 -32 15 -20 11 7 32 38 47 70 16 32 36 60 46 62 26 7 24 37 -1 37 -11 0 -20
-4 -20 -8z"/>
<path d="M3908 2423 c-20 -5 -23 -25 -7 -54 6 -12 7 -28 3 -37 -9 -20 -8 -18
-18 -60 -5 -22 -13 -32 -21 -28 -7 2 -20 -3 -29 -13 -20 -22 -45 -83 -39 -98
2 -7 -7 -28 -21 -46 -14 -19 -26 -45 -26 -59 0 -45 -21 -62 -73 -56 -40 5 -48
2 -61 -16 -12 -19 -12 -25 0 -41 8 -10 14 -24 13 -29 0 -6 -3 -5 -6 2 -6 16
-23 16 -23 -1 0 -7 14 -23 30 -37 36 -30 39 -50 5 -50 -43 0 -76 -22 -92 -63
-14 -35 -18 -37 -44 -32 -27 6 -29 5 -29 -24 0 -31 -24 -45 -32 -19 -2 6 -12
9 -21 5 -23 -9 -11 -36 19 -43 27 -7 31 -22 9 -30 -8 -4 -15 -14 -15 -23 0 -9
-23 -34 -50 -54 -48 -36 -52 -37 -78 -23 l-27 14 25 10 c14 6 31 17 38 25 14
16 11 20 -33 42 -29 15 -26 41 4 37 24 -2 44 15 35 30 -9 15 -74 9 -81 -7 -7
-20 -68 -46 -88 -39 -11 5 -15 -2 -15 -26 0 -28 -3 -32 -21 -27 -13 4 -36 -4
-60 -19 -41 -26 -89 -32 -89 -11 0 7 10 17 22 22 34 15 34 42 1 61 -16 10 -37
34 -47 55 l-19 39 -33 -38 c-19 -20 -36 -46 -39 -57 -4 -12 -15 -26 -26 -33
-17 -11 -21 -9 -31 12 -13 29 -33 36 -68 24 -27 -10 -50 10 -50 44 0 21 -4 22
-31 8 -10 -6 -19 -19 -19 -28 0 -10 -6 -26 -13 -35 -11 -15 -15 -16 -31 -4
-17 12 -22 10 -52 -22 -31 -33 -35 -34 -47 -19 -7 9 -32 26 -55 38 -24 12 -49
35 -57 50 -8 15 -34 39 -59 54 -25 14 -54 39 -66 56 -13 19 -33 32 -55 36 -33
6 -39 13 -36 41 1 6 -4 15 -10 19 -13 8 -31 -16 -24 -33 8 -24 -12 -22 -23 1
-8 17 -22 26 -52 31 -27 5 -50 17 -68 37 -15 17 -42 45 -59 62 -18 18 -33 38
-33 44 0 6 -16 18 -35 26 -36 15 -109 88 -129 128 -6 12 -22 25 -35 28 -13 3
-25 12 -27 20 -2 8 -7 35 -11 60 -7 35 -13 45 -28 45 -14 0 -19 -6 -18 -20 3
-36 24 -120 33 -137 5 -10 7 -24 4 -33 -3 -8 -2 -15 4 -15 5 0 12 -15 15 -34
3 -18 28 -79 56 -135 27 -56 53 -123 57 -149 3 -26 12 -74 20 -106 11 -49 11
-65 0 -90 -22 -54 -60 -101 -149 -189 -90 -90 -120 -137 -157 -252 -27 -84
-46 -106 -123 -145 -61 -30 -79 -43 -225 -153 -162 -123 -179 -132 -283 -167
-103 -35 -105 -36 -202 -130 -82 -79 -116 -104 -205 -150 -145 -75 -251 -149
-347 -241 -45 -42 -91 -79 -103 -83 -16 -5 -22 -15 -22 -37 l0 -29 1628 0
c1607 0 1627 1 1602 20 -14 10 -59 38 -100 61 -108 60 -170 109 -170 135 0 55
-145 185 -236 212 -22 6 -60 31 -85 54 -24 24 -67 62 -94 85 -27 23 -46 46
-41 50 4 4 14 -1 22 -12 13 -17 16 -18 24 -5 16 25 11 37 -27 69 -21 17 -49
40 -63 51 -14 11 -50 38 -80 60 -30 22 -69 53 -87 70 -18 16 -39 30 -46 30
-21 0 -105 86 -109 112 -2 19 -8 23 -35 21 -28 -3 -40 7 -108 80 -42 45 -87
102 -100 127 -18 37 -38 135 -44 220 0 8 -3 42 -7 75 -4 41 -2 55 5 46 5 -8
13 -42 16 -75 8 -68 12 -79 26 -70 6 4 6 11 -2 20 -11 14 -7 47 9 72 7 11 18
5 48 -22 21 -20 46 -36 55 -36 9 0 23 -10 32 -22 13 -20 18 -21 34 -10 31 21
42 24 59 18 15 -6 14 -9 -5 -30 l-22 -23 33 -21 33 -21 24 22 c16 15 25 18 28
10 3 -7 10 -13 17 -13 6 0 19 -12 28 -27 26 -44 69 -78 121 -97 49 -19 60 -39
30 -61 -21 -16 -7 -38 19 -30 12 4 27 0 39 -11 17 -15 22 -16 45 -4 22 12 27
12 34 0 6 -8 10 -22 10 -31 0 -22 26 -44 35 -29 8 14 111 13 134 -2 28 -17 51
-3 51 31 0 36 17 43 97 41 32 -1 87 2 122 6 56 6 66 5 77 -11 12 -16 17 -17
40 -5 22 12 27 12 35 0 8 -13 11 -12 20 3 6 10 22 17 40 17 16 0 43 10 58 21
34 25 43 21 76 -32 30 -46 31 -66 5 -99 -11 -14 -20 -30 -20 -37 0 -6 -17 -30
-37 -52 -21 -22 -48 -54 -61 -71 -14 -18 -36 -32 -58 -36 -28 -5 -32 -9 -23
-20 6 -8 9 -23 6 -35 -8 -29 13 -59 40 -59 30 0 30 -26 1 -57 -34 -36 -14 -47
63 -33 54 10 71 18 106 52 59 58 102 37 53 -25 -19 -24 -22 -40 -17 -122 1
-16 -2 -41 -5 -55 -4 -14 -3 -31 1 -39 7 -11 13 -10 29 5 23 21 56 109 47 124
-6 10 29 85 45 95 13 8 11 16 16 -95 4 -81 0 -107 -22 -180 -30 -100 -94 -262
-134 -342 l-29 -58 884 0 885 0 0 103 0 102 -156 93 c-85 51 -182 113 -214
136 -78 58 -212 126 -356 182 -66 25 -132 51 -149 59 -16 7 -55 24 -86 38 -76
33 -290 160 -310 183 -9 11 -31 46 -49 79 -19 33 -53 89 -77 124 -24 35 -43
67 -43 71 0 4 -7 45 -15 91 -7 46 -15 127 -16 180 -2 94 -2 96 31 145 19 27
55 75 80 106 104 130 184 310 214 487 18 101 20 159 7 179 -7 11 -10 10 -15
-3 -3 -9 -6 -26 -7 -38 -1 -20 -2 -20 -9 3 -4 14 -8 42 -9 62 -1 40 -7 47 -33
41z m43 -186 c-8 -8 -11 -7 -11 4 0 20 13 34 18 19 3 -7 -1 -17 -7 -23z m-992
-606 c12 -8 12 -14 1 -40 -7 -17 -16 -31 -20 -31 -13 0 -20 30 -14 56 7 26 12
28 33 15z m321 -66 c0 -8 -9 -15 -20 -15 -11 0 -20 7 -20 15 0 8 9 15 20 15
11 0 20 -7 20 -15z m-40 -35 c0 -11 -48 -25 -56 -17 -4 3 -3 10 1 16 8 14 55
14 55 1z m20 -60 c0 -5 -4 -10 -10 -10 -5 0 -10 5 -10 10 0 6 5 10 10 10 6 0
10 -4 10 -10z m314 -84 c-3 -9 -10 -16 -15 -16 -6 0 -5 9 1 21 13 24 24 20 14
-5z m-29 -208 c-4 -57 -10 -157 -14 -223 l-6 -120 -13 90 c-10 69 -10 108 -2
165 6 41 14 101 17 133 2 31 10 57 15 57 8 0 9 -32 3 -102z m-1065 -528 c0 -5
-2 -10 -4 -10 -3 0 -8 5 -11 10 -3 6 -1 10 4 10 6 0 11 -4 11 -10z"/>
<path d="M1550 2250 c0 -16 -9 -21 -51 -26 -42 -6 -48 -9 -33 -17 10 -6 49
-11 85 -12 l68 -2 -22 39 c-24 41 -47 50 -47 18z"/>
<path d="M2377 2022 c-22 -24 -21 -39 3 -52 22 -12 28 -5 32 39 4 30 -14 37
-35 13z"/>
<path d="M2457 1904 c-8 -8 1 -24 14 -24 5 0 9 7 9 15 0 15 -12 20 -23 9z"/>
<path d="M3010 1890 c0 -5 14 -10 30 -10 17 0 30 5 30 10 0 6 -13 10 -30 10
-16 0 -30 -4 -30 -10z"/>
<path d="M2487 1834 c-3 -4 -2 -15 4 -26 14 -26 53 -20 57 10 3 18 -1 22 -26
22 -16 0 -32 -3 -35 -6z"/>
<path d="M3203 1744 c-8 -21 13 -42 28 -27 13 13 5 43 -11 43 -6 0 -13 -7 -17
-16z"/>
<path d="M2820 1706 c0 -9 5 -16 10 -16 6 0 10 4 10 9 0 6 -4 13 -10 16 -5 3
-10 -1 -10 -9z"/>
<path d="M3060 1609 c0 -11 5 -17 10 -14 6 3 10 13 10 21 0 8 -4 14 -10 14 -5
0 -10 -9 -10 -21z"/>
<path d="M2356 1221 c-4 -7 -5 -15 -2 -18 9 -9 19 4 14 18 -4 11 -6 11 -12 0z"/>
<path d="M3330 1099 c0 -5 5 -7 10 -4 6 3 10 8 10 11 0 2 -4 4 -10 4 -5 0 -10
-5 -10 -11z"/>
<path d="M3130 650 c0 -5 6 -10 14 -10 8 0 18 5 21 10 3 6 -3 10 -14 10 -12 0
-21 -4 -21 -10z"/>
<path d="M2587 603 c-4 -3 -7 -12 -7 -19 0 -9 5 -10 24 -1 13 7 22 15 20 19
-6 10 -28 10 -37 1z"/>
<path d="M2613 564 c-3 -9 0 -20 8 -25 20 -12 49 -11 49 2 0 12 -29 38 -43 39
-4 0 -10 -7 -14 -16z"/>
<path d="M2660 490 c0 -11 4 -20 9 -20 5 0 17 -3 26 -7 16 -6 16 -4 0 20 -21
32 -35 35 -35 7z"/>
</g>
</svg>
